<svg t="1668328888559" class="icon" viewBox="0 0 1024 1024" version="1.1" xmlns="http://www.w3.org/2000/svg" p-id="6973" width="200" height="200"><path d="M327.68 204.8h-81.92c-22.528 0-40.96 18.432-40.96 40.96v81.92c0 22.528 18.432 40.96 40.96 40.96h81.92c22.528 0 40.96-18.432 40.96-40.96v-81.92c0-22.528-18.432-40.96-40.96-40.96z m225.28 0h-81.92c-22.528 0-40.96 18.432-40.96 40.96v81.92c0 22.528 18.432 40.96 40.96 40.96h81.92c22.528 0 40.96-18.432 40.96-40.96v-81.92c0-22.528-18.432-40.96-40.96-40.96z m225.28 0h-81.92c-22.528 0-40.96 18.432-40.96 40.96v81.92c0 22.528 18.432 40.96 40.96 40.96h81.92c22.528 0 40.96-18.432 40.96-40.96v-81.92c0-22.528-18.432-40.96-40.96-40.96zM327.68 430.08h-81.92c-22.528 0-40.96 18.432-40.96 40.96v81.92c0 22.528 18.432 40.96 40.96 40.96h81.92c22.528 0 40.96-18.432 40.96-40.96v-81.92c0-22.528-18.432-40.96-40.96-40.96z m225.28 0h-81.92c-22.528 0-40.96 18.432-40.96 40.96v81.92c0 22.528 18.432 40.96 40.96 40.96h81.92c22.528 0 40.96-18.432 40.96-40.96v-81.92c0-22.528-18.432-40.96-40.96-40.96z m225.28 0h-81.92c-22.528 0-40.96 18.432-40.96 40.96v81.92c0 22.528 18.432 40.96 40.96 40.96h81.92c22.528 0 40.96-18.432 40.96-40.96v-81.92c0-22.528-18.432-40.96-40.96-40.96zM327.68 655.36h-81.92c-22.528 0-40.96 18.432-40.96 40.96v81.92c0 22.528 18.432 40.96 40.96 40.96h81.92c22.528 0 40.96-18.432 40.96-40.96v-81.92c0-22.528-18.432-40.96-40.96-40.96z m225.28 0h-81.92c-22.528 0-40.96 18.432-40.96 40.96v81.92c0 22.528 18.432 40.96 40.96 40.96h81.92c22.528 0 40.96-18.432 40.96-40.96v-81.92c0-22.528-18.432-40.96-40.96-40.96z m225.28 0h-81.92c-22.528 0-40.96 18.432-40.96 40.96v81.92c0 22.528 18.432 40.96 40.96 40.96h81.92c22.528 0 40.96-18.432 40.96-40.96v-81.92c0-22.528-18.432-40.96-40.96-40.96z" p-id="6974" fill="#bfbfbf"></path></svg>
