<svg t="1668328765805" class="icon" viewBox="0 0 1024 1024" version="1.1" xmlns="http://www.w3.org/2000/svg" p-id="5073" width="200" height="200"><path d="M847.104 752.917333C768 673.834667 768 637.888 768 554.666667v-106.666667a256.234667 256.234667 0 0 0-172.373333-241.706667A81.621333 81.621333 0 0 0 597.333333 192a85.333333 85.333333 0 0 0-170.666666 0 81.621333 81.621333 0 0 0 1.706666 14.293333A256.234667 256.234667 0 0 0 256 448v106.666667c0 83.2 0 119.168-79.082667 198.250666A21.333333 21.333333 0 0 0 192 789.333333h640a21.333333 21.333333 0 0 0 15.082667-36.416zM553.728 195.690667a236.501333 236.501333 0 0 0-83.456 0C470.144 194.474667 469.333333 193.258667 469.333333 192a42.666667 42.666667 0 0 1 85.333334 0c0 1.237333-0.810667 2.453333-0.938667 3.712zM512 917.333333a85.44 85.44 0 0 0 85.333333-85.333333h-170.666666a85.44 85.44 0 0 0 85.333333 85.333333z" fill="#bfbfbf" p-id="5074"></path></svg>
